<svg width="296" height="168" viewBox="0 0 296 168" fill="none" xmlns="http://www.w3.org/2000/svg">
<g clip-path="url(#clip0_1234_1059)">
<rect x="0.5" width="295" height="168" rx="8" fill="#04B6F5" fill-opacity="0.08"/>
<path d="M132.988 127.502C134.327 133.531 141.238 154.167 145.88 153.136C150.522 152.104 151.447 129.854 149.799 123.767C148.377 118.52 144.205 115.818 139.564 116.848C134.921 117.88 131.809 122.195 132.988 127.502Z" fill="white"/>
<path d="M141.498 117.368C140.917 117.368 140.32 117.436 139.724 117.567C135.202 118.573 132.673 122.684 133.708 127.342C135.371 134.826 141.925 152.435 145.539 152.437C145.602 152.437 145.661 152.43 145.721 152.416C146.111 152.331 146.526 151.937 146.924 151.28C149.896 146.363 150.557 129.378 149.089 123.959C147.987 119.893 145.079 117.368 141.498 117.368ZM145.539 153.909H145.538C139.672 153.906 132.962 130.778 132.27 127.662C131.069 122.259 134.136 117.301 139.405 116.13C140.106 115.975 140.81 115.895 141.498 115.895C145.774 115.895 149.227 118.838 150.51 123.573C151.919 128.779 151.563 146.452 148.184 152.042C147.565 153.067 146.843 153.677 146.041 153.854C145.877 153.891 145.708 153.909 145.539 153.909" fill="#1A172D"/>
<path d="M72.041 118.444C72.041 139.395 89.0251 183.267 109.976 183.267C130.928 183.267 147.912 139.395 147.912 118.444C147.912 100.001 130.928 95.5567 109.976 95.5567C89.0251 95.5567 72.041 100.001 72.041 118.444" fill="url(#paint0_linear_1234_1059)"/>
<path d="M72.041 118.444C72.041 139.395 89.0251 183.267 109.976 183.267C130.928 183.267 147.912 139.395 147.912 118.444C147.912 100.001 130.928 95.5567 109.976 95.5567C89.0251 95.5567 72.041 100.001 72.041 118.444" fill="white"/>
<path d="M109.977 96.293C84.5979 96.293 72.7775 103.332 72.7775 118.443C72.7775 139.546 89.9967 182.531 109.977 182.531C129.958 182.531 147.176 139.546 147.176 118.443C147.176 103.332 135.356 96.293 109.977 96.293ZM109.977 184.004C88.8134 184.004 71.3047 140.597 71.3047 118.443C71.3047 97.269 93.3757 94.8202 109.977 94.8202C126.578 94.8202 148.649 97.269 148.649 118.443C148.649 140.597 131.141 184.004 109.977 184.004" fill="#1A172D"/>
<path d="M106.308 178.443C106.228 178.443 106.146 178.431 106.066 178.402C101.99 176.984 97.8242 173.454 93.6844 167.913C93.4412 167.587 93.508 167.124 93.834 166.882C94.1603 166.639 94.6217 166.706 94.8649 167.03C98.7697 172.259 102.81 175.711 106.55 177.012C106.934 177.145 107.136 177.566 107.004 177.948C106.898 178.253 106.613 178.443 106.308 178.443Z" fill="#1A172D"/>
<path d="M72.6592 115.444C72.6592 127.417 89.3261 137.122 109.886 137.122C130.445 137.122 147.113 127.417 147.113 115.444C147.113 103.472 130.445 93.7658 109.886 93.7658C89.3261 93.7658 72.6592 103.472 72.6592 115.444" fill="#EFF5FF"/>
<path d="M109.886 94.5021C89.7645 94.5021 73.3957 103.897 73.3957 115.443C73.3957 126.991 89.7645 136.386 109.886 136.386C130.006 136.386 146.376 126.991 146.376 115.443C146.376 103.897 130.006 94.5021 109.886 94.5021V94.5021ZM109.886 137.859C88.9525 137.859 71.9229 127.803 71.9229 115.443C71.9229 103.085 88.9525 93.0293 109.886 93.0293C130.818 93.0293 147.849 103.085 147.849 115.443C147.849 127.803 130.818 137.859 109.886 137.859" fill="#1A172D"/>
<path d="M65.2363 86.2003C65.2363 110.797 85.1768 130.738 109.774 130.738C134.372 130.738 154.312 110.797 154.312 86.2003C154.312 61.6024 134.372 41.6626 109.774 41.6626C85.1768 41.6626 65.2363 61.6024 65.2363 86.2003Z" fill="white"/>
<path d="M109.774 42.3991C85.6221 42.3991 65.9728 62.0484 65.9728 86.2005C65.9728 110.353 85.6221 130.002 109.774 130.002C133.927 130.002 153.575 110.353 153.575 86.2005C153.575 62.0484 133.927 42.3991 109.774 42.3991ZM109.774 131.475C84.8102 131.475 64.5 111.165 64.5 86.2005C64.5 61.2364 84.8102 40.9263 109.774 40.9263C134.739 40.9263 155.048 61.2364 155.048 86.2005C155.048 111.165 134.739 131.475 109.774 131.475Z" fill="#1A172D"/>
<path d="M82.0491 115.226C81.863 115.226 81.677 115.155 81.5336 115.014C73.7155 107.351 69.4102 97.1169 69.4102 86.2005C69.4102 82.3309 69.9594 78.5035 71.0421 74.8225C71.1572 74.4317 71.5691 74.2118 71.9568 74.3237C72.3465 74.4386 72.5701 74.848 72.4554 75.2378C71.4119 78.7834 70.883 82.4723 70.883 86.2005C70.883 96.7183 75.0318 106.578 82.5646 113.963C82.8549 114.248 82.8595 114.714 82.5749 115.004C82.4307 115.151 82.2397 115.226 82.0491 115.226Z" fill="#1A172D"/>
<path d="M94.3591 123.445C94.2631 123.445 94.1657 123.426 94.0718 123.386C91.2731 122.2 88.6021 120.69 86.1327 118.901C85.8041 118.662 85.7309 118.201 85.969 117.872C86.208 117.542 86.6671 117.47 86.9981 117.708C89.3764 119.432 91.9499 120.887 94.6471 122.03C95.0218 122.189 95.1963 122.621 95.0375 122.996C94.9186 123.276 94.6455 123.445 94.3591 123.445" fill="#1A172D"/>
<path d="M151.694 95.7805C142.367 107.81 129.256 115.127 114.798 116.37C110.905 116.705 107.371 112.897 107.371 108.368V95.0274C107.371 89.0713 110.763 84.159 115.726 82.9297C126.183 80.3386 135.678 74.7006 143.344 66.5295C145.158 64.5962 148.271 65.3856 149.48 68.1329C151.955 73.762 153.608 79.883 154.244 86.2583C154.597 89.8107 153.657 93.2482 151.694 95.7805" fill="#EFF5FF"/>
<path d="M145.762 66.1987C145.044 66.1987 144.394 66.4874 143.881 67.0333C136.141 75.283 126.467 81.0269 115.903 83.6446C111.241 84.8003 108.108 89.3738 108.108 95.0274V108.368C108.108 110.255 108.803 112.136 110.013 113.525C111.298 114.999 113.028 115.786 114.734 115.637C128.99 114.411 141.909 107.199 151.112 95.3289C152.967 92.9351 153.841 89.6566 153.51 86.331C152.895 80.1511 151.312 74.1283 148.805 68.4295C148.209 67.0745 147.015 66.1987 145.762 66.1987V66.1987ZM114.32 117.128C112.337 117.128 110.363 116.167 108.903 114.492C107.44 112.814 106.635 110.639 106.635 108.368V95.0274C106.635 88.6855 110.218 83.5366 115.549 82.215C125.836 79.666 135.262 74.0674 142.808 66.0259C143.593 65.1874 144.643 64.7259 145.762 64.7259C147.598 64.7259 149.323 65.9473 150.153 67.8374C152.723 73.6776 154.345 79.8506 154.976 86.1857C155.344 89.8814 154.36 93.5428 152.276 96.2312C142.818 108.43 129.531 115.842 114.862 117.105C114.68 117.121 114.499 117.128 114.32 117.128Z" fill="#1A172D"/>
<path d="M112.589 113.752C127.047 112.509 140.158 105.192 149.485 93.1609C151.448 90.6297 152.388 87.1921 152.035 83.6397C151.413 77.4019 149.813 71.4115 147.425 65.8845C148.269 66.3185 149.016 67.0785 149.48 68.134C151.955 73.7621 153.609 79.8831 154.244 86.2584C154.598 89.8118 153.657 93.2483 151.694 95.7806C142.367 107.81 129.256 115.127 114.798 116.371C112.179 116.596 109.727 114.942 108.4 112.459C109.619 113.38 111.075 113.881 112.589 113.752" fill="#1A172D"/>
<path d="M70.4434 144.131C70.4434 149.855 75.0835 154.496 80.8075 154.496C86.5315 154.496 91.172 149.855 91.172 144.131C91.172 138.408 86.5315 133.767 80.8075 133.767C75.0835 133.767 70.4434 138.408 70.4434 144.131Z" fill="#EFF5FF"/>
<path d="M80.808 134.504C75.4989 134.504 71.1798 138.823 71.1798 144.131C71.1798 149.44 75.4989 153.759 80.808 153.759C86.1166 153.759 90.4353 149.44 90.4353 144.131C90.4353 138.823 86.1166 134.504 80.808 134.504ZM80.808 155.232C74.687 155.232 69.707 150.252 69.707 144.131C69.707 138.011 74.687 133.031 80.808 133.031C86.929 133.031 91.9081 138.011 91.9081 144.131C91.9081 150.252 86.929 155.232 80.808 155.232Z" fill="#1A172D"/>
<path d="M71.5454 148.727C72.8609 156.521 83.8073 173.647 88.4493 172.616C93.0913 171.584 88.9499 150.49 87.6101 144.462C86.4307 139.155 82.0173 136.513 77.3753 137.544C72.7333 138.576 70.6402 143.367 71.5454 148.727" fill="white"/>
<path d="M79.3472 138.06C78.75 138.06 78.1402 138.129 77.535 138.262C73.494 139.161 71.3787 143.317 72.2715 148.604C73.4908 155.83 83.7495 171.924 88.0299 171.925C88.1215 171.925 88.209 171.915 88.2899 171.896C91.1764 171.255 89.7239 157.365 86.8915 144.621C86.0055 140.635 83.0442 138.06 79.3472 138.06V138.06ZM88.0299 173.397C82.556 173.396 72.086 156.354 70.8191 148.85C69.8031 142.832 72.4335 137.888 77.2159 136.826C77.9251 136.668 78.6422 136.587 79.3472 136.587C83.7618 136.587 87.2877 139.615 88.3287 144.302C90.182 152.638 93.9184 172.154 88.6094 173.335C88.4237 173.376 88.2285 173.397 88.0299 173.397" fill="#1A172D"/>
<path d="M83.8508 165.068C83.6302 165.068 83.412 164.97 83.2666 164.782C81.5288 162.525 79.7641 159.824 78.2974 157.177C78.1003 156.822 78.2291 156.374 78.5851 156.177C78.9406 155.98 79.3882 156.108 79.5861 156.464C81.0176 159.048 82.7393 161.684 84.4337 163.882C84.6819 164.204 84.6217 164.668 84.2991 164.915C84.1656 165.018 84.0073 165.068 83.8508 165.068" fill="#1A172D"/>
<path d="M109.939 57.2874C108.673 57.2874 107.44 57.1617 106.273 56.9133C105.875 56.8288 105.621 56.438 105.706 56.0394C105.79 55.6417 106.182 55.3874 106.58 55.4728C107.645 55.6996 108.775 55.8145 109.939 55.8145C110.345 55.8145 110.675 56.1445 110.675 56.5509C110.675 56.9574 110.345 57.2874 109.939 57.2874" fill="#1A172D"/>
<path d="M104.138 56.2405C104.047 56.2405 103.953 56.2238 103.864 56.1875C101.253 55.1427 99.3404 53.4245 98.4793 51.3478C98.3232 50.9727 98.5019 50.5417 98.877 50.3856C99.2531 50.2295 99.6841 50.4072 99.8402 50.7832C100.547 52.4897 102.171 53.9233 104.412 54.8207C104.789 54.9709 104.972 55.4 104.821 55.778C104.706 56.0657 104.429 56.2405 104.138 56.2405Z" fill="#1A172D"/>
<path d="M101.649 48.7783C101.649 51.4441 105.361 53.6052 109.939 53.6052C114.518 53.6052 118.229 51.4441 118.229 48.7783C118.229 46.1116 114.518 43.9505 109.939 43.9505C105.361 43.9505 101.649 46.1116 101.649 48.7783Z" fill="#EFF5FF"/>
<path d="M109.938 44.6868C105.844 44.6868 102.385 46.5602 102.385 48.7773C102.385 50.9953 105.844 52.8687 109.938 52.8687C114.033 52.8687 117.492 50.9953 117.492 48.7773C117.492 46.5602 114.033 44.6868 109.938 44.6868ZM109.938 54.3416C104.877 54.3416 100.912 51.8977 100.912 48.7773C100.912 45.6579 104.877 43.214 109.938 43.214C115 43.214 118.965 45.6579 118.965 48.7773C118.965 51.8977 115 54.3416 109.938 54.3416Z" fill="#1A172D"/>
<path d="M111.931 31.0899H107.946V48.6556C107.946 49.2967 108.839 49.8162 109.939 49.8162C111.039 49.8162 111.931 49.2967 111.931 48.6556V31.0899Z" fill="white"/>
<path d="M108.684 31.8262V48.6555C108.719 48.7645 109.162 49.0797 109.939 49.0797C110.715 49.0797 111.159 48.7645 111.196 48.6447L111.194 31.8262H108.684ZM109.939 50.5525C108.383 50.5525 107.211 49.7365 107.211 48.6555V30.3534H112.667V48.6555C112.667 49.7365 111.494 50.5525 109.939 50.5525Z" fill="#1A172D"/>
<path d="M104.019 31.5957C104.019 34.8663 106.67 37.5173 109.939 37.5173C113.21 37.5173 115.861 34.8663 115.861 31.5957C115.861 28.325 113.21 25.674 109.939 25.674C106.67 25.674 104.019 28.325 104.019 31.5957Z" fill="white"/>
<path d="M109.939 26.4103C107.081 26.4103 104.755 28.7373 104.755 31.5956C104.755 34.4548 107.081 36.7809 109.939 36.7809C112.799 36.7809 115.125 34.4548 115.125 31.5956C115.125 28.7373 112.799 26.4103 109.939 26.4103ZM109.939 38.2537C106.269 38.2537 103.282 35.2668 103.282 31.5956C103.282 27.9244 106.269 24.9375 109.939 24.9375C113.611 24.9375 116.597 27.9244 116.597 31.5956C116.597 35.2668 113.611 38.2537 109.939 38.2537Z" fill="#1A172D"/>
<path d="M111.934 32.332C111.527 32.332 111.197 32.0021 111.197 31.5956C111.197 30.9024 110.633 30.3388 109.939 30.3388C109.532 30.3388 109.202 30.0089 109.202 29.6024C109.202 29.1959 109.532 28.866 109.939 28.866C111.445 28.866 112.67 30.0904 112.67 31.5956C112.67 32.0021 112.34 32.332 111.934 32.332Z" fill="#1A172D"/>
<path d="M141.697 93.0372C142.048 92.8349 142.488 93.1236 142.428 93.5242C141.991 96.459 139.651 99.8573 136.831 101.485C133.965 103.14 131.596 102.393 131.214 99.8681C131.149 99.4361 131.362 99.004 131.74 98.7851L141.697 93.0372Z" fill="#1A172D"/>
<path d="M136.831 100.329C138.39 99.4282 139.765 97.8887 140.612 96.2656C139.608 95.9495 138.285 96.6544 136.831 97.4939C135.376 98.3344 134.053 99.1563 133.049 100.632C133.896 101.277 135.272 101.229 136.831 100.329Z" fill="white"/>
<path d="M124.073 93.9415C124.073 95.8581 122.719 98.193 121.049 99.1572C119.378 100.121 118.024 99.3496 118.024 97.433C118.024 95.5164 119.378 93.1815 121.049 92.2173C122.719 91.2531 124.073 92.0249 124.073 93.9415Z" fill="#1A172D"/>
<path d="M148.517 79.8279C148.517 81.7446 147.163 84.0805 145.493 85.0446C143.823 86.0088 142.47 85.2371 142.47 83.3205C142.47 81.4039 143.823 79.068 145.493 78.1038C147.163 77.1396 148.517 77.9113 148.517 79.8279Z" fill="#1A172D"/>
<path d="M123.256 93.6528C123.256 94.3764 122.744 95.2591 122.113 95.6234C121.482 95.9877 120.97 95.696 120.97 94.9714C120.97 94.2478 121.482 93.3651 122.113 93.0008C122.744 92.6365 123.256 92.9281 123.256 93.6528Z" fill="white"/>
<path d="M147.714 79.7427C147.714 80.4673 147.202 81.349 146.571 81.7133C145.939 82.0785 145.428 81.7859 145.428 81.0623C145.428 80.3377 145.939 79.4559 146.571 79.0917C147.202 78.7274 147.714 79.019 147.714 79.7427Z" fill="white"/>
<path d="M127.881 159.238L129.6 160.956L131.318 159.238L129.6 157.52L127.881 159.238ZM122.972 159.238L124.69 160.956L126.408 159.238L124.69 157.52L122.972 159.238ZM132.791 154.329L134.509 156.047L136.227 154.329L134.509 152.61L132.791 154.329ZM127.881 154.329L129.6 156.047L131.318 154.329L129.6 152.61L127.881 154.329ZM122.972 154.329L124.69 156.047L126.408 154.329L124.69 152.61L122.972 154.329ZM132.791 149.419L134.509 151.138L136.227 149.419L134.509 147.701L132.791 149.419ZM127.881 149.419L129.6 151.138L131.318 149.419L129.6 147.701L127.881 149.419ZM137.7 144.51L139.418 146.228L141.137 144.51L139.418 142.792L137.7 144.51ZM132.791 144.51L134.509 146.228L136.227 144.51L134.509 142.792L132.791 144.51ZM127.881 144.51L129.6 146.228L131.318 144.51L129.6 142.792L127.881 144.51ZM137.7 139.601L139.418 141.319L141.137 139.601L139.418 137.882L137.7 139.601ZM132.791 139.601L134.509 141.319L136.227 139.601L134.509 137.882L132.791 139.601ZM137.7 134.691L139.418 136.409L141.137 134.691L139.418 132.973L137.7 134.691ZM118.062 173.966L119.781 175.684L121.499 173.966L119.781 172.248L118.062 173.966ZM122.972 169.057L124.69 170.775L126.408 169.057L124.69 167.338L122.972 169.057ZM118.062 169.057L119.781 170.775L121.499 169.057L119.781 167.338L118.062 169.057ZM127.881 164.147L129.6 165.866L131.318 164.147L129.6 162.429L127.881 164.147ZM122.972 164.147L124.69 165.866L126.408 164.147L124.69 162.429L122.972 164.147Z" fill="#005AF4"/>
<path d="M182.203 98.3857V114.339L190.019 118.105L199.213 88.3486L182.203 98.3857" fill="#EFF5FF"/>
<path d="M182.837 113.941L189.63 117.214L198.124 89.7271L182.837 98.7473V113.941ZM190.019 118.739C189.924 118.739 189.831 118.717 189.743 118.675L181.928 114.911C181.709 114.805 181.569 114.583 181.569 114.339V98.3855C181.569 98.1607 181.688 97.9536 181.881 97.8395L198.891 87.8025C199.116 87.6698 199.401 87.6892 199.606 87.8515C199.812 88.0138 199.896 88.2851 199.819 88.5353L190.624 118.291C190.569 118.468 190.442 118.612 190.272 118.685C190.191 118.721 190.105 118.739 190.019 118.739Z" fill="#1A172D"/>
<path d="M176.928 106.326L234.438 73.2656C239.013 70.6243 242.722 63.5379 242.722 57.4371V43.0472C242.722 39.9511 245.745 39.8894 244.206 38.7729C244.081 38.6808 237.988 35.1832 237.854 35.1071C236.404 34.2805 234.516 34.3642 232.452 35.5551L174.943 68.6152C170.368 71.2565 166.659 78.3429 166.659 84.4437V98.8345C166.659 102.171 167.768 104.52 169.522 105.534C169.579 105.567 175.739 109.169 175.797 109.199C177.226 109.936 174.936 107.476 176.928 106.326" fill="#EFF5FF"/>
<path d="M235.742 35.1952C234.815 35.1952 233.815 35.5012 232.77 36.1047L175.259 69.1647C170.868 71.7004 167.293 78.5552 167.293 84.443V98.8346C167.293 101.808 168.221 104.05 169.839 104.984L170.579 105.417C171.821 106.143 174.306 107.596 175.474 108.278C175.367 107.514 175.434 106.456 176.611 105.777L234.122 72.7164C238.513 70.1807 242.088 63.3268 242.088 57.4381V43.0473C242.088 41.1591 243.083 40.2074 243.677 39.6385C243.763 39.5557 243.871 39.4526 243.945 39.3723C243.917 39.3478 243.881 39.319 243.834 39.2852C243.589 39.1314 237.881 35.8528 237.541 35.6584C237.001 35.3507 236.396 35.1952 235.742 35.1952ZM176.177 109.969C175.986 109.969 175.786 109.907 175.507 109.763C175.475 109.746 175.445 109.73 169.94 106.512L169.204 106.082C167.184 104.915 166.025 102.274 166.025 98.8346V84.443C166.025 78.1511 169.884 70.8045 174.626 68.0659L232.137 35.0059C234.319 33.7465 236.474 33.591 238.168 34.557C238.229 34.5917 244.407 38.1349 244.578 38.2591C244.861 38.4645 245.241 38.795 245.274 39.2886C245.311 39.8296 244.926 40.1981 244.553 40.5548C244.02 41.0653 243.356 41.7009 243.356 43.0473V57.4381C243.356 63.7299 239.497 71.0766 234.755 73.8152L177.244 106.875C176.565 107.267 176.646 107.837 176.833 108.599C176.93 108.993 177.022 109.365 176.769 109.688C176.63 109.866 176.413 109.969 176.177 109.969" fill="#1A172D"/>
<path d="M172.786 103.227L166.854 99.8377L172.786 103.227Z" fill="white"/>
<path d="M172.786 103.862C172.679 103.862 172.571 103.835 172.472 103.778L166.54 100.389C166.236 100.215 166.13 99.8276 166.305 99.5233C166.479 99.219 166.867 99.1151 167.169 99.2875L173.101 102.677C173.405 102.851 173.511 103.238 173.337 103.542C173.22 103.747 173.006 103.862 172.786 103.862" fill="#1A172D"/>
<path d="M173.315 83.0474L167.376 79.6546L173.315 83.0474Z" fill="white"/>
<path d="M173.314 83.6821C173.208 83.6821 173.099 83.6551 173 83.5985L167.062 80.2049C166.758 80.0316 166.652 79.6437 166.826 79.3402C167 79.0359 167.388 78.932 167.691 79.1036L173.629 82.4971C173.934 82.6712 174.039 83.0584 173.865 83.3626C173.748 83.5672 173.535 83.6821 173.314 83.6821Z" fill="#1A172D"/>
<path d="M179.125 73.4331L173.088 69.9838L179.125 73.4331Z" fill="white"/>
<path d="M179.125 74.0676C179.018 74.0676 178.91 74.0406 178.811 73.984L172.774 70.5337C172.47 70.3605 172.364 69.9725 172.538 69.6691C172.712 69.3648 173.1 69.2609 173.403 69.4333L179.44 72.8826C179.744 73.0567 179.85 73.4438 179.676 73.7481C179.559 73.9527 179.345 74.0676 179.125 74.0676Z" fill="#1A172D"/>
<path d="M235.763 40.7244L229.726 37.2742L235.763 40.7244Z" fill="white"/>
<path d="M235.763 41.3577C235.656 41.3577 235.548 41.3306 235.449 41.2748L229.412 37.8246C229.107 37.6514 229.002 37.2634 229.176 36.96C229.35 36.6557 229.739 36.5517 230.04 36.7233L236.078 40.1735C236.382 40.3468 236.488 40.7347 236.314 41.0382C236.196 41.2436 235.982 41.3577 235.763 41.3577Z" fill="#1A172D"/>
<path d="M181.073 72.198L238.582 39.1379C243.157 36.4966 246.866 39.3011 246.866 45.401V59.7918C246.866 65.8918 243.157 72.9782 238.582 75.6203L205.311 94.6928L189.986 118.107V103.536L181.073 108.68C176.498 111.322 172.789 108.517 172.789 102.417V88.0265C172.789 81.9257 176.498 74.8393 181.073 72.198" fill="white"/>
<path d="M189.986 102.903C190.095 102.903 190.205 102.93 190.303 102.987C190.499 103.1 190.62 103.31 190.62 103.536V115.981L204.78 94.3455C204.835 94.2619 204.909 94.1925 204.996 94.1427L238.267 75.0702C242.658 72.5345 246.232 65.6806 246.232 59.7919V45.4012C246.232 41.3779 244.52 38.778 241.871 38.778C240.944 38.778 239.944 39.0839 238.899 39.6874L181.388 72.7475C176.997 75.2832 173.423 82.1371 173.423 88.0266V102.417C173.423 106.441 175.135 109.041 177.784 109.041C178.711 109.041 179.711 108.735 180.756 108.131L189.669 102.987C189.767 102.93 189.877 102.903 189.986 102.903V102.903ZM189.986 118.741C189.926 118.741 189.864 118.733 189.805 118.715C189.536 118.635 189.352 118.388 189.352 118.107V104.634L181.39 109.229C180.149 109.945 178.937 110.308 177.784 110.308C174.365 110.308 172.155 107.211 172.155 102.417V88.0266C172.155 81.7339 176.014 74.3873 180.756 71.6487L238.266 38.5886C239.505 37.8736 240.719 37.5101 241.871 37.5101C245.291 37.5101 247.5 40.6079 247.5 45.4012V59.7919C247.5 66.0838 243.642 73.4313 238.899 76.169L205.758 95.1662L190.516 118.455C190.397 118.637 190.196 118.741 189.986 118.741Z" fill="#1A172D"/>
<path d="M215.143 72.1238L236.501 60.0007V62.0039L215.143 74.127V72.1238Z" fill="#1A172D"/>
<path d="M203.362 70.5998L236.5 51.6753V53.6785L203.362 72.603V70.5998Z" fill="#005AF4"/>
<path d="M223.014 63.417L236.5 55.8379V57.8411L223.014 65.4202V63.417Z" fill="#1A172D"/>
<path d="M221.041 64.5556V66.5588L194.467 81.9199V79.9167L221.041 64.5556" fill="#1A172D"/>
<path d="M213.17 73.2623V75.2663L197.868 84.1006V82.0974L213.17 73.2623Z" fill="#005AF4"/>
<path d="M201.389 73.7414L183.791 83.9204V81.9172L201.389 71.7382V73.7414Z" fill="#005AF4"/>
<path d="M192.495 83.0583L183.791 88.084V86.08L192.495 81.0551V83.0583Z" fill="#1A172D"/>
<path d="M195.895 85.2391L183.791 92.2468V90.2428L195.895 83.2359V85.2391" fill="#1A172D"/>
<path d="M236.5 66.1665L183.791 96.4094V94.4062L236.5 64.1633V66.1665Z" fill="#005AF4"/>
</g>
<defs>
<linearGradient id="paint0_linear_1234_1059" x1="149.223" y1="144.813" x2="70.8478" y2="132.948" gradientUnits="userSpaceOnUse">
<stop stop-color="#C396D1"/>
<stop offset="0.010101" stop-color="#C396D1"/>
<stop offset="0.19697" stop-color="white"/>
<stop offset="0.358586" stop-color="#D2AADA"/>
<stop offset="0.611111" stop-color="#8259B2"/>
<stop offset="1" stop-color="#AE76C2"/>
</linearGradient>
<clipPath id="clip0_1234_1059">
<rect x="0.5" width="295" height="168" rx="8" fill="white"/>
</clipPath>
</defs>
</svg>
