<svg width="38" height="38" viewBox="0 0 38 38" fill="none" xmlns="http://www.w3.org/2000/svg">
<path d="M18.9971 0.301025C22.6083 0.301025 25.5277 3.22762 25.5283 6.83287C25.5283 10.4441 22.6089 13.3635 18.9965 13.3635C15.3912 13.3635 12.4658 10.4441 12.4658 6.83287C12.4658 3.22703 15.3912 0.301025 18.9971 0.301025Z" fill="#ED5565"/>
<path d="M23.6166 15.2243C23.8469 14.9928 24.224 14.9922 24.4549 15.2232L32.0116 22.7798C32.2426 23.0108 32.2431 23.389 32.0122 23.6206L30.7511 24.8847C30.5201 25.1156 30.1425 25.1174 29.9109 24.8864L29.9097 24.8858C29.6781 24.6555 29.2993 24.279 29.0684 24.0475L23.1932 18.1664C22.9622 17.9354 22.5858 17.5584 22.3548 17.328C22.1245 17.097 22.1251 16.72 22.3548 16.4884L23.6166 15.2243ZM15.6443 16.4825C15.8752 16.7135 15.8752 17.0911 15.6443 17.3221L15.6407 17.3262C15.4097 17.5572 15.0321 17.9348 14.8011 18.1658L8.92599 24.0415C8.69443 24.2731 8.31621 24.6495 8.08464 24.8799L8.08346 24.8805C7.85189 25.1109 7.47308 25.1103 7.24152 24.8799L5.98336 23.6247C5.7518 23.3937 5.56299 23.2037 5.56299 23.2026C5.56299 23.2014 5.7518 23.0108 5.98277 22.7798L13.5448 15.2232C13.7757 14.9922 14.1534 14.9922 14.3843 15.2232L15.6443 16.4825Z" fill="#E6E9ED"/>
<path d="M13.3329 28.4448C13.9141 29.0261 13.9141 29.9648 13.3329 30.5466L12.9113 30.9688C12.3354 31.5447 11.3907 31.5447 10.8154 30.9688C10.2341 30.3869 10.2341 29.4482 10.8154 28.8669L11.0238 28.6532L11.2322 28.4448C11.8129 27.8688 12.751 27.8688 13.3329 28.4448Z" fill="#EAC6BB"/>
<path d="M15.4285 30.5466C16.0097 31.1232 16.0097 32.0666 15.4285 32.6426L15.0128 33.0641C14.431 33.646 13.4922 33.646 12.911 33.0641C12.335 32.4876 12.335 31.5441 12.911 30.9688L13.3325 30.5466C13.9144 29.9648 14.8525 29.9648 15.4285 30.5466ZM17.5303 32.6432C18.1116 33.2244 18.1116 34.1632 17.5303 34.7444L17.1088 35.166C16.5316 35.7431 15.5882 35.7431 15.0128 35.166C14.431 34.5847 14.431 33.6466 15.0128 33.0647L15.4344 32.6432C16.0103 32.0666 16.9485 32.0666 17.5303 32.6432Z" fill="#EAC6BB"/>
<path d="M19.6319 34.7444C20.2085 35.3269 20.2085 36.265 19.6325 36.841L19.4188 37.0547V37.0607L19.211 37.2625C18.6291 37.8444 17.6904 37.8444 17.1091 37.2619C16.532 36.686 16.532 35.7425 17.1091 35.166L17.5307 34.7444C18.1125 34.1626 19.0507 34.1626 19.6319 34.7444ZM22.7735 17.746L29.4882 24.4666L27.3928 28.2375L21.9422 22.781C21.4726 22.3184 20.725 22.3184 20.2619 22.7816L17.5307 25.5128C16.9535 26.0888 16.0101 26.0888 15.4347 25.5128C14.8528 24.9315 14.8534 23.9928 15.4347 23.4109L15.6425 23.2031L19.0032 19.8484L19.4194 19.4269L22.7735 17.746Z" fill="#EAC6BB"/>
<path d="M20.2615 22.781C20.7246 22.3178 21.4722 22.3178 21.9418 22.7804L27.3925 28.2369L27.3984 28.2363L28.0284 28.8663C28.6037 29.4482 28.6037 30.3869 28.0284 30.9688C27.4465 31.5447 26.5078 31.55 25.9265 30.9688C26.5078 31.55 26.5078 32.4882 25.9265 33.0635C25.3446 33.6454 24.4065 33.646 23.8305 33.0641C24.4071 33.646 24.4071 34.5847 23.8246 35.1654C23.2487 35.7479 22.3105 35.7473 21.7287 35.1654C22.3105 35.7473 22.3105 36.686 21.7287 37.2613C21.1474 37.8432 20.2087 37.8438 19.6268 37.2679L19.419 37.06V37.0541L19.6327 36.8404C20.2087 36.2638 20.2087 35.3263 19.6321 34.7438C19.0509 34.1625 18.1121 34.1625 17.5309 34.7438C18.1121 34.1625 18.1121 33.2238 17.5309 32.6426C16.949 32.066 16.0103 32.066 15.4349 32.6426L15.0134 33.0641L15.429 32.6426C16.0103 32.066 16.0103 31.1225 15.429 30.5466C14.8525 29.9647 13.9143 29.9647 13.333 30.5466C13.9143 29.9647 13.9143 29.026 13.333 28.4447C12.7512 27.8682 11.8125 27.8682 11.2318 28.4447L11.0234 28.6531L8.50586 24.4613L15.2212 17.7454L18.9968 19.8413L19.0034 19.8472L15.6427 23.2019L15.4349 23.4097C14.8536 23.9916 14.853 24.9303 15.4349 25.5116C16.0109 26.0875 16.9543 26.0875 17.5309 25.5116L20.2615 22.781Z" fill="#D3B1A9"/>
<path d="M19.0093 9.80226C18.6809 9.80226 18.4155 9.53686 18.4155 9.20851V3.86536C18.4155 3.53701 18.6809 3.27161 19.0093 3.27161C19.3376 3.27161 19.603 3.53701 19.603 3.86536V9.20851C19.603 9.53686 19.337 9.80226 19.0093 9.80226Z" fill="#F6BB42"/>
<path d="M21.3843 9.80225L16.6343 9.80165C16.3059 9.80165 16.0405 9.53565 16.0405 9.2079C16.0405 8.87956 16.3065 8.61415 16.6343 8.61415L21.3843 8.61475C21.7126 8.61475 21.978 8.88075 21.978 9.2085C21.978 9.53684 21.7114 9.80225 21.3843 9.80225ZM21.3843 5.05284L16.6343 5.05225C16.3059 5.05225 16.0405 4.78625 16.0405 4.4585C16.0405 4.13015 16.3065 3.86475 16.6343 3.86475L21.3843 3.86534C21.7126 3.86534 21.978 4.13134 21.978 4.45909C21.978 4.78743 21.7114 5.05284 21.3843 5.05284ZM21.978 6.8335H20.7905C20.4622 6.8335 20.1968 6.56809 20.1968 6.23975C20.1968 5.9114 20.4622 5.646 20.7905 5.646H21.978C22.3064 5.646 22.5718 5.9114 22.5718 6.23975C22.5718 6.56809 22.3058 6.8335 21.978 6.8335ZM17.228 6.83409H16.0405C15.7122 6.83409 15.4468 6.56868 15.4468 6.24034C15.4468 5.912 15.7122 5.64659 16.0405 5.64659H17.228C17.5564 5.64659 17.8218 5.912 17.8218 6.24034C17.8218 6.56868 17.5558 6.83409 17.228 6.83409Z" fill="#FFCE54"/>
<path d="M6.40732 24.0415C6.17635 24.2725 5.79873 24.2725 5.56776 24.0409L4.30604 22.7792C4.07507 22.5482 4.07507 22.1706 4.30604 21.9396L12.7052 13.5464C12.9362 13.3154 13.3138 13.3154 13.5448 13.5464L14.8006 14.8022C15.0315 15.0331 15.0315 15.4108 14.8006 15.6417L6.40732 24.0415ZM33.6943 21.9396C33.9253 22.1706 33.9253 22.5482 33.6943 22.7792L32.432 24.0415C32.201 24.2725 31.8234 24.2725 31.5924 24.0409L23.1986 15.6423C22.9676 15.4114 22.9676 15.0337 23.1986 14.8028L24.4549 13.5464C24.6859 13.3154 25.0635 13.3154 25.2945 13.5464L33.6943 21.9396Z" fill="#656D78"/>
</svg>
