<svg width="38" height="38" viewBox="0 0 38 38" fill="none" xmlns="http://www.w3.org/2000/svg">
<g clip-path="url(#clip0_1267_1311)">
<path d="M23.6604 6.02955C18.7917 1.15486 10.9008 1.15486 6.02607 6.02955C1.15732 10.8983 1.15732 18.7952 6.02607 23.658C7.06514 24.6971 8.24017 25.5164 9.49951 26.1042L9.51198 26.0805V24.9464C9.51198 24.2927 10.0404 23.7589 10.6995 23.7589H13.9473V10.6964H15.7285V23.7589H19.012C19.6651 23.7589 20.1995 24.2927 20.1995 24.9464V26.1042C21.4517 25.5105 22.622 24.6971 23.661 23.658C28.5286 18.7898 28.5286 10.8983 23.6604 6.02955Z" fill="#5D9CEC"/>
<path d="M20.1987 24.947V26.1048C16.8203 27.7074 12.8778 27.7139 9.49878 26.1048L9.51125 26.0811V24.947C9.51125 24.2933 10.0397 23.7595 10.6987 23.7595H13.9466H15.7278H19.0112C19.6638 23.7595 20.1987 24.2933 20.1987 24.947Z" fill="#656D78"/>
<path d="M15.7273 10.697H13.946V23.7595H15.7273V10.697Z" fill="#CCD1D9"/>
<path d="M5.94214 16.6345H10.6921C10.6921 17.9467 9.62339 19.0095 8.31714 19.0095C7.00495 19.0095 5.94214 17.9467 5.94214 16.6345Z" fill="#FFCE54"/>
<path d="M8.31714 10.697L10.6921 16.6345H5.94214L8.31714 10.697Z" fill="#5D9CEC"/>
<path d="M15.7273 8.62012V10.1045H13.946V8.62012C13.946 8.1273 14.3439 7.72949 14.8367 7.72949C15.3295 7.72949 15.7273 8.1273 15.7273 8.62012Z" fill="#CCD1D9"/>
<path d="M21.3916 10.697L23.7666 16.6345H19.0166L21.3916 10.697Z" fill="#5D9CEC"/>
<path d="M26.4807 29.833L27.3173 28.9958L28.9976 27.3155L29.8348 26.4789L36.7104 33.3545C37.6373 34.2808 37.6373 35.7829 36.7104 36.7086C35.7842 37.6408 34.282 37.6408 33.3557 36.7086L26.4807 29.833Z" fill="#656D78"/>
<path d="M28.9975 27.3155L27.3172 28.9958L24.0457 25.7243C24.3485 25.4689 24.6394 25.2018 24.9185 24.9227C25.2035 24.6377 25.4712 24.3462 25.7206 24.0439L28.9975 27.3155Z" fill="#CCD1D9"/>
<path d="M6.0254 6.02955C1.15665 10.8983 1.15665 18.7952 6.0254 23.658C7.06446 24.6971 8.23949 25.5164 9.49883 26.1042C12.8773 27.7133 16.8198 27.7068 20.1988 26.1042C21.451 25.5105 22.6213 24.6971 23.6604 23.658C28.5285 18.7892 28.5285 10.8983 23.6604 6.02955C18.791 1.15486 10.9001 1.15486 6.0254 6.02955ZM4.76665 4.76486C10.336 -0.798574 19.3551 -0.798574 24.9179 4.76486C30.2023 10.0492 30.4754 18.4449 25.7201 24.0439C25.4707 24.3467 25.2035 24.6377 24.9179 24.9227C24.6389 25.2017 24.3479 25.4689 24.0451 25.7242C18.452 30.4742 10.0564 30.207 4.76605 24.9227C-0.796791 19.3539 -0.796791 10.3342 4.76665 4.76486Z" fill="#E6E9ED"/>
<path d="M19.0136 17.8225C18.9399 17.8225 18.8651 17.8095 18.7933 17.7804C18.4887 17.6587 18.3403 17.3131 18.462 17.0085L20.8376 11.0704C20.9587 10.7646 21.3066 10.6168 21.6094 10.7391C21.914 10.8608 22.0625 11.2064 21.9407 11.511L19.5652 17.4491C19.4725 17.6812 19.2493 17.8225 19.0136 17.8225Z" fill="#CCD1D9"/>
<path d="M23.7637 17.8225C23.5286 17.8225 23.3053 17.6818 23.2121 17.4491L20.8377 11.511C20.716 11.2064 20.8644 10.8608 21.169 10.7391C21.4706 10.6168 21.8192 10.7646 21.9409 11.0704L24.3153 17.0085C24.437 17.3131 24.2886 17.6587 23.984 17.7804C23.9121 17.8089 23.8373 17.8225 23.7637 17.8225Z" fill="#CCD1D9"/>
<path d="M23.7637 16.6351H19.0137C18.6853 16.6351 18.4199 16.9005 18.4199 17.2289C18.4199 18.8659 19.7517 20.1976 21.3887 20.1976C23.0256 20.1976 24.3574 18.8659 24.3574 17.2289C24.3574 16.9005 24.092 16.6351 23.7637 16.6351Z" fill="#FFCE54"/>
<path d="M5.93861 17.8225C5.86499 17.8225 5.79017 17.8095 5.71833 17.7804C5.41374 17.6587 5.2653 17.3131 5.38702 17.0085L7.76261 11.0704C7.88374 10.7646 8.23168 10.6168 8.53449 10.7391C8.83908 10.8608 8.98752 11.2064 8.8658 11.511L6.49021 17.4491C6.39699 17.6812 6.17374 17.8225 5.93861 17.8225Z" fill="#CCD1D9"/>
<path d="M10.6888 17.8225C10.4536 17.8225 10.2304 17.6818 10.1372 17.4491L7.76275 11.511C7.64103 11.2064 7.78947 10.8608 8.09406 10.7391C8.39569 10.6168 8.74422 10.7646 8.86594 11.0704L11.2403 17.0085C11.3621 17.3131 11.2136 17.6587 10.909 17.7804C10.8372 17.8089 10.7624 17.8225 10.6888 17.8225Z" fill="#CCD1D9"/>
<path d="M10.6887 16.6351H5.93872C5.61038 16.6351 5.34497 16.9005 5.34497 17.2289C5.34497 18.8659 6.67675 20.1976 8.31372 20.1976C9.95069 20.1976 11.2825 18.8659 11.2825 17.2289C11.2825 16.9005 11.0171 16.6351 10.6887 16.6351Z" fill="#FFCE54"/>
<path d="M13.9461 11.2914H8.31736H8.0567H8.01514C7.52826 11.2914 7.12451 10.8936 7.12451 10.4008C7.12451 9.90794 7.52826 9.51013 8.01514 9.51013H8.0567H13.9467H15.728H21.6714C22.1642 9.51013 22.562 9.90794 22.562 10.4008C22.562 10.8936 22.1642 11.2914 21.6714 11.2914H21.3923H15.728H13.9461Z" fill="#E6E9ED"/>
</g>
<defs>
<clipPath id="clip0_1267_1311">
<rect width="38" height="38" fill="white"/>
</clipPath>
</defs>
</svg>
