<svg width="40" height="40" viewBox="0 0 40 40" fill="none" xmlns="http://www.w3.org/2000/svg">
<path d="M20.4454 19.0909C20.4454 13.7115 16.3997 9.35059 11.4092 9.35059C6.41867 9.35059 2.37305 13.7115 2.37305 19.0909V30.2597C2.37305 35.6391 6.41867 40 11.4092 40C16.3997 40 20.4454 35.6391 20.4454 30.2597V19.0909Z" fill="#2B3A4C"/>
<path d="M20.4454 11.0391C20.4454 5.65969 16.3997 1.29883 11.4092 1.29883C6.41867 1.29883 2.37305 5.65969 2.37305 11.0391V19.3508C2.37305 24.7302 6.41867 29.0911 11.4092 29.0911C16.3997 29.0911 20.4454 24.7302 20.4454 19.3508V11.0391Z" fill="#2B3A4C"/>
<path d="M14.3047 5.1941L6.46138 10.6543C2.34057 13.5231 1.15747 19.4495 3.81884 23.8914C6.48022 28.3333 11.9783 29.6086 16.0991 26.7399L23.9424 21.2797C28.0632 18.4109 29.2463 12.4845 26.5849 8.04255C23.9235 3.60064 18.4255 2.32534 14.3047 5.1941Z" fill="#2B3A4C"/>
<path d="M12.6143 1.29877C7.62375 1.29877 3.57813 5.65963 3.57813 11.039C3.57813 16.4184 7.62375 20.7793 12.6143 20.7793H29.9637C34.9542 20.7793 38.9998 16.4184 38.9998 11.039C38.9998 5.65963 34.9542 1.29877 29.9637 1.29877H12.6143Z" fill="#2B3A4C"/>
<path d="M19.7229 34.2856L20.2047 32.857L20.4456 31.818L20.4457 23.7661C20.7966 21.9503 22.2813 20.649 24.0019 20.649H24.5421L31.2891 20.649L32.7349 20.3893L34.3011 19.6101L35.8674 18.4413L37.3132 16.8828V32.3375V34.6752L37.1927 35.7141C37.1927 37.2744 36.119 38.5923 34.6838 38.7941L34.4216 38.831H25.024L15.5059 38.9609L16.2288 38.5713L17.0722 37.9217L17.6746 37.2726L18.518 36.3635L18.8795 35.7141L19.7229 34.2856Z" fill="#04B6F5"/>
<path d="M14.4119 16.6238L14.4003 10.8388L11.7401 15.6264H11.0692L8.40898 10.9136V16.6238H6.98633V7.89648H8.22392L11.4278 13.669L14.5969 7.89648H15.823L15.8461 16.6238H14.4119Z" fill="white"/>
<path d="M28.1902 13.5443V16.6238H26.6866V13.5692L23.5059 7.89648H25.1136L27.4846 12.1479L29.8789 7.89648H31.3593L28.1902 13.5443Z" fill="white"/>
<path d="M28.1871 33.6309C27.3698 33.6309 26.6295 33.4398 25.9664 33.0574C25.311 32.6668 24.7943 32.1307 24.4165 31.4491C24.0464 30.7675 23.8613 29.9987 23.8613 29.1426C23.8613 28.2865 24.0502 27.5177 24.4281 26.8361C24.8059 26.1546 25.3225 25.6226 25.978 25.2403C26.6411 24.8496 27.3813 24.6543 28.1987 24.6543C28.8618 24.6543 29.4671 24.779 30.0146 25.0283C30.5621 25.2777 31.0247 25.6392 31.4025 26.113L30.431 27.0979C29.845 26.4164 29.124 26.0756 28.2681 26.0756C27.7129 26.0756 27.2156 26.2086 26.776 26.4746C26.3365 26.7322 25.9934 27.0938 25.7466 27.5592C25.4999 28.0247 25.3765 28.5525 25.3765 29.1426C25.3765 29.7327 25.4999 30.2605 25.7466 30.726C25.9934 31.1914 26.3365 31.5572 26.776 31.8231C27.2156 32.0808 27.7129 32.2096 28.2681 32.2096C29.124 32.2096 29.845 31.8647 30.431 31.1748L31.4025 32.1722C31.0247 32.646 30.5582 33.0075 30.003 33.2569C29.4556 33.5062 28.8503 33.6309 28.1871 33.6309Z" fill="white"/>
<path d="M13.2946 31.4868H9.24639L8.44832 33.5066H6.89844L10.5418 24.7793H12.0223L15.6772 33.5066H14.1042L13.2946 31.4868ZM12.7972 30.2151L11.2705 26.4001L9.75531 30.2151H12.7972Z" fill="white"/>
</svg>
